<mxfile host="Electron" modified="2024-05-17T23:31:23.351Z" agent="5.0 (Windows NT 10.0; Win64; x64) AppleWebKit/537.36 (KHTML, like Gecko) draw.io/20.8.16 Chrome/106.0.5249.199 Electron/21.4.0 Safari/537.36" etag="a520Pi11d38nhqZISSvX" compressed="false" version="20.8.16" type="device">
  <diagram name="v4" id="9n7vPRytGBd8-qQ8bjde">
    <mxGraphModel dx="491" dy="258" grid="1" gridSize="10" guides="1" tooltips="1" connect="1" arrows="1" fold="1" page="1" pageScale="1" pageWidth="827" pageHeight="1169" math="0" shadow="0">
      <root>
        <mxCell id="AcLKcFcPObNCE5Jz1mWQ-0" />
        <mxCell id="AcLKcFcPObNCE5Jz1mWQ-1" parent="AcLKcFcPObNCE5Jz1mWQ-0" />
        <object label="%id%" placeholders="1" type="platform" id="p00">
          <mxCell style="rounded=0;whiteSpace=wrap;html=1;" parent="AcLKcFcPObNCE5Jz1mWQ-1" vertex="1">
            <mxGeometry x="240" y="260" width="120" height="40" as="geometry" />
          </mxCell>
        </object>
        <object label="%id%" placeholders="1" type="platform" id="p01">
          <mxCell style="rounded=0;whiteSpace=wrap;html=1;" parent="AcLKcFcPObNCE5Jz1mWQ-1" vertex="1">
            <mxGeometry x="240" y="420" width="120" height="40" as="geometry" />
          </mxCell>
        </object>
        <object label="%id%" placeholders="1" type="platform" id="p02">
          <mxCell style="rounded=0;whiteSpace=wrap;html=1;" parent="AcLKcFcPObNCE5Jz1mWQ-1" vertex="1">
            <mxGeometry x="520" y="180" width="120" height="40" as="geometry" />
          </mxCell>
        </object>
        <object label="%id%" placeholders="1" type="platform" id="p04">
          <mxCell style="rounded=0;whiteSpace=wrap;html=1;" parent="AcLKcFcPObNCE5Jz1mWQ-1" vertex="1">
            <mxGeometry x="800" y="180" width="120" height="40" as="geometry" />
          </mxCell>
        </object>
        <object label="%id%" placeholders="1" type="platform" id="p06">
          <mxCell style="rounded=0;whiteSpace=wrap;html=1;" parent="AcLKcFcPObNCE5Jz1mWQ-1" vertex="1">
            <mxGeometry x="1080" y="180" width="120" height="40" as="geometry" />
          </mxCell>
        </object>
        <object label="%id%" placeholders="1" type="platform" id="p08">
          <mxCell style="rounded=0;whiteSpace=wrap;html=1;" parent="AcLKcFcPObNCE5Jz1mWQ-1" vertex="1">
            <mxGeometry x="1360" y="180" width="120" height="40" as="geometry" />
          </mxCell>
        </object>
        <object label="%id%" placeholders="1" type="platform" id="p11">
          <mxCell style="rounded=0;whiteSpace=wrap;html=1;" parent="AcLKcFcPObNCE5Jz1mWQ-1" vertex="1">
            <mxGeometry x="1640" y="260" width="120" height="40" as="geometry" />
          </mxCell>
        </object>
        <object label="%id%" placeholders="1" type="platform" id="p12">
          <mxCell style="rounded=0;whiteSpace=wrap;html=1;" parent="AcLKcFcPObNCE5Jz1mWQ-1" vertex="1">
            <mxGeometry x="1640" y="420" width="120" height="40" as="geometry" />
          </mxCell>
        </object>
        <object label="%id%" placeholders="1" type="platform" id="p09">
          <mxCell style="rounded=0;whiteSpace=wrap;html=1;" parent="AcLKcFcPObNCE5Jz1mWQ-1" vertex="1">
            <mxGeometry x="1360" y="340" width="120" height="40" as="geometry" />
          </mxCell>
        </object>
        <object label="%id%" placeholders="1" type="platform" id="p10">
          <mxCell style="rounded=0;whiteSpace=wrap;html=1;" parent="AcLKcFcPObNCE5Jz1mWQ-1" vertex="1">
            <mxGeometry x="1360" y="500" width="120" height="40" as="geometry" />
          </mxCell>
        </object>
        <object label="%id%" placeholders="1" type="platform" id="p07">
          <mxCell style="rounded=0;whiteSpace=wrap;html=1;" parent="AcLKcFcPObNCE5Jz1mWQ-1" vertex="1">
            <mxGeometry x="1080" y="500" width="120" height="40" as="geometry" />
          </mxCell>
        </object>
        <object label="%id%" placeholders="1" type="platform" id="p03">
          <mxCell style="rounded=0;whiteSpace=wrap;html=1;" parent="AcLKcFcPObNCE5Jz1mWQ-1" vertex="1">
            <mxGeometry x="520" y="500" width="120" height="40" as="geometry" />
          </mxCell>
        </object>
        <object label="%id%" placeholders="1" type="platform" id="p05">
          <mxCell style="rounded=0;whiteSpace=wrap;html=1;" parent="AcLKcFcPObNCE5Jz1mWQ-1" vertex="1">
            <mxGeometry x="800" y="420" width="120" height="40" as="geometry" />
          </mxCell>
        </object>
        <object label="%id%" placeholders="1" type="junction" id="j00">
          <mxCell style="ellipse;whiteSpace=wrap;html=1;aspect=fixed;perimeter=ellipsePerimeter;" parent="AcLKcFcPObNCE5Jz1mWQ-1" vertex="1">
            <mxGeometry x="390" y="230" width="20" height="20" as="geometry" />
          </mxCell>
        </object>
        <object label="%id%" placeholders="1" type="junction" id="j01">
          <mxCell style="ellipse;whiteSpace=wrap;html=1;aspect=fixed;" parent="AcLKcFcPObNCE5Jz1mWQ-1" vertex="1">
            <mxGeometry x="430" y="310" width="20" height="20" as="geometry" />
          </mxCell>
        </object>
        <object label="%id%" placeholders="1" type="junction" id="j02">
          <mxCell style="ellipse;whiteSpace=wrap;html=1;aspect=fixed;" parent="AcLKcFcPObNCE5Jz1mWQ-1" vertex="1">
            <mxGeometry x="470" y="310" width="20" height="20" as="geometry" />
          </mxCell>
        </object>
        <object label="%id%" placeholders="1" type="junction" id="j03">
          <mxCell style="ellipse;whiteSpace=wrap;html=1;aspect=fixed;" parent="AcLKcFcPObNCE5Jz1mWQ-1" vertex="1">
            <mxGeometry x="510" y="230" width="20" height="20" as="geometry" />
          </mxCell>
        </object>
        <object label="%id%" placeholders="1" type="junction" id="j15">
          <mxCell style="ellipse;whiteSpace=wrap;html=1;aspect=fixed;" parent="AcLKcFcPObNCE5Jz1mWQ-1" vertex="1">
            <mxGeometry x="910" y="470" width="20" height="20" as="geometry" />
          </mxCell>
        </object>
        <object label="%id%" placeholders="1" type="junction" id="j12">
          <mxCell style="ellipse;whiteSpace=wrap;html=1;aspect=fixed;" parent="AcLKcFcPObNCE5Jz1mWQ-1" vertex="1">
            <mxGeometry x="1030" y="470" width="20" height="20" as="geometry" />
          </mxCell>
        </object>
        <object label="%id%" placeholders="1" type="junction" id="j04">
          <mxCell style="ellipse;whiteSpace=wrap;html=1;aspect=fixed;" parent="AcLKcFcPObNCE5Jz1mWQ-1" vertex="1">
            <mxGeometry x="750" y="310" width="20" height="20" as="geometry" />
          </mxCell>
        </object>
        <object label="%id%" placeholders="1" type="junction" id="j05">
          <mxCell style="ellipse;whiteSpace=wrap;html=1;aspect=fixed;" parent="AcLKcFcPObNCE5Jz1mWQ-1" vertex="1">
            <mxGeometry x="990" y="230" width="20" height="20" as="geometry" />
          </mxCell>
        </object>
        <object label="%id%" placeholders="1" type="junction" id="j06">
          <mxCell style="ellipse;whiteSpace=wrap;html=1;aspect=fixed;" parent="AcLKcFcPObNCE5Jz1mWQ-1" vertex="1">
            <mxGeometry x="1030" y="230" width="20" height="20" as="geometry" />
          </mxCell>
        </object>
        <object label="%id%" placeholders="1" type="junction" id="j07">
          <mxCell style="ellipse;whiteSpace=wrap;html=1;aspect=fixed;" parent="AcLKcFcPObNCE5Jz1mWQ-1" vertex="1">
            <mxGeometry x="1070" y="310" width="20" height="20" as="geometry" />
          </mxCell>
        </object>
        <object label="%id%" placeholders="1" type="junction" id="j11">
          <mxCell style="ellipse;whiteSpace=wrap;html=1;aspect=fixed;" parent="AcLKcFcPObNCE5Jz1mWQ-1" vertex="1">
            <mxGeometry x="1510" y="390" width="20" height="20" as="geometry" />
          </mxCell>
        </object>
        <object label="%id%" placeholders="1" type="junction" id="j10">
          <mxCell style="ellipse;whiteSpace=wrap;html=1;aspect=fixed;" parent="AcLKcFcPObNCE5Jz1mWQ-1" vertex="1">
            <mxGeometry x="1550" y="470" width="20" height="20" as="geometry" />
          </mxCell>
        </object>
        <object label="%id%" placeholders="1" type="junction" id="j09">
          <mxCell style="ellipse;whiteSpace=wrap;html=1;aspect=fixed;" parent="AcLKcFcPObNCE5Jz1mWQ-1" vertex="1">
            <mxGeometry x="1590" y="470" width="20" height="20" as="geometry" />
          </mxCell>
        </object>
        <object label="%id%" placeholders="1" type="junction" id="j08">
          <mxCell style="ellipse;whiteSpace=wrap;html=1;aspect=fixed;" parent="AcLKcFcPObNCE5Jz1mWQ-1" vertex="1">
            <mxGeometry x="1630" y="390" width="20" height="20" as="geometry" />
          </mxCell>
        </object>
        <object label="%id%" placeholders="1" type="junction" id="c17">
          <mxCell style="ellipse;whiteSpace=wrap;html=1;aspect=fixed;perimeter=ellipsePerimeter;" parent="AcLKcFcPObNCE5Jz1mWQ-1" vertex="1">
            <mxGeometry x="230" y="310" width="20" height="20" as="geometry" />
          </mxCell>
        </object>
        <object label="%id%" placeholders="1" type="junction" id="c16">
          <mxCell style="ellipse;whiteSpace=wrap;html=1;aspect=fixed;perimeter=ellipsePerimeter;" parent="AcLKcFcPObNCE5Jz1mWQ-1" vertex="1">
            <mxGeometry x="230" y="230" width="20" height="20" as="geometry" />
          </mxCell>
        </object>
        <object label="%id%" placeholders="1" type="junction" id="c46">
          <mxCell style="ellipse;whiteSpace=wrap;html=1;aspect=fixed;perimeter=ellipsePerimeter;" parent="AcLKcFcPObNCE5Jz1mWQ-1" vertex="1">
            <mxGeometry x="350" y="390" width="20" height="20" as="geometry" />
          </mxCell>
        </object>
        <object label="%id%" placeholders="1" type="junction" id="c45">
          <mxCell style="ellipse;whiteSpace=wrap;html=1;aspect=fixed;perimeter=ellipsePerimeter;" parent="AcLKcFcPObNCE5Jz1mWQ-1" vertex="1">
            <mxGeometry x="350" y="470" width="20" height="20" as="geometry" />
          </mxCell>
        </object>
        <object label="%id%" placeholders="1" type="junction" id="c43">
          <mxCell style="ellipse;whiteSpace=wrap;html=1;aspect=fixed;perimeter=ellipsePerimeter;" parent="AcLKcFcPObNCE5Jz1mWQ-1" vertex="1">
            <mxGeometry x="630" y="470" width="20" height="20" as="geometry" />
          </mxCell>
        </object>
        <object label="%id%" placeholders="1" type="junction" id="c44">
          <mxCell style="ellipse;whiteSpace=wrap;html=1;aspect=fixed;perimeter=ellipsePerimeter;" parent="AcLKcFcPObNCE5Jz1mWQ-1" vertex="1">
            <mxGeometry x="630" y="390" width="20" height="20" as="geometry" />
          </mxCell>
        </object>
        <object label="%id%" placeholders="1" type="junction" id="c42">
          <mxCell style="ellipse;whiteSpace=wrap;html=1;aspect=fixed;perimeter=ellipsePerimeter;" parent="AcLKcFcPObNCE5Jz1mWQ-1" vertex="1">
            <mxGeometry x="910" y="390" width="20" height="20" as="geometry" />
          </mxCell>
        </object>
        <object label="%id%" placeholders="1" type="junction" id="c39">
          <mxCell style="ellipse;whiteSpace=wrap;html=1;aspect=fixed;perimeter=ellipsePerimeter;" parent="AcLKcFcPObNCE5Jz1mWQ-1" vertex="1">
            <mxGeometry x="1190" y="470" width="20" height="20" as="geometry" />
          </mxCell>
        </object>
        <object label="%id%" placeholders="1" type="junction" id="c40">
          <mxCell style="ellipse;whiteSpace=wrap;html=1;aspect=fixed;perimeter=ellipsePerimeter;" parent="AcLKcFcPObNCE5Jz1mWQ-1" vertex="1">
            <mxGeometry x="1190" y="390" width="20" height="20" as="geometry" />
          </mxCell>
        </object>
        <object label="%id%" placeholders="1" type="junction" id="c27">
          <mxCell style="ellipse;whiteSpace=wrap;html=1;aspect=fixed;perimeter=ellipsePerimeter;" parent="AcLKcFcPObNCE5Jz1mWQ-1" vertex="1">
            <mxGeometry x="1350" y="230" width="20" height="20" as="geometry" />
          </mxCell>
        </object>
        <object label="%id%" placeholders="1" type="junction" id="c28">
          <mxCell style="ellipse;whiteSpace=wrap;html=1;aspect=fixed;perimeter=ellipsePerimeter;" parent="AcLKcFcPObNCE5Jz1mWQ-1" vertex="1">
            <mxGeometry x="1350" y="310" width="20" height="20" as="geometry" />
          </mxCell>
        </object>
        <object label="%id%" placeholders="1" type="junction" id="c29">
          <mxCell style="ellipse;whiteSpace=wrap;html=1;aspect=fixed;perimeter=ellipsePerimeter;" parent="AcLKcFcPObNCE5Jz1mWQ-1" vertex="1">
            <mxGeometry x="1630" y="230" width="20" height="20" as="geometry" />
          </mxCell>
        </object>
        <object label="%id%" placeholders="1" type="junction" id="c30">
          <mxCell style="ellipse;whiteSpace=wrap;html=1;aspect=fixed;perimeter=ellipsePerimeter;" parent="AcLKcFcPObNCE5Jz1mWQ-1" vertex="1">
            <mxGeometry x="1630" y="310" width="20" height="20" as="geometry" />
          </mxCell>
        </object>
        <object label="%id%" placeholders="1" type="junction" id="c35">
          <mxCell style="ellipse;whiteSpace=wrap;html=1;aspect=fixed;perimeter=ellipsePerimeter;" parent="AcLKcFcPObNCE5Jz1mWQ-1" vertex="1">
            <mxGeometry x="1750" y="390" width="20" height="20" as="geometry" />
          </mxCell>
        </object>
        <object label="%id%" placeholders="1" type="junction" id="c34">
          <mxCell style="ellipse;whiteSpace=wrap;html=1;aspect=fixed;perimeter=ellipsePerimeter;" parent="AcLKcFcPObNCE5Jz1mWQ-1" vertex="1">
            <mxGeometry x="1750" y="470" width="20" height="20" as="geometry" />
          </mxCell>
        </object>
        <object label="%id%" placeholders="1" type="junction" id="c36">
          <mxCell style="ellipse;whiteSpace=wrap;html=1;aspect=fixed;perimeter=ellipsePerimeter;" parent="AcLKcFcPObNCE5Jz1mWQ-1" vertex="1">
            <mxGeometry x="1630" y="470" width="20" height="20" as="geometry" />
          </mxCell>
        </object>
        <object label="%id%" placeholders="1" type="junction" id="c38">
          <mxCell style="ellipse;whiteSpace=wrap;html=1;aspect=fixed;perimeter=ellipsePerimeter;" parent="AcLKcFcPObNCE5Jz1mWQ-1" vertex="1">
            <mxGeometry x="1470" y="390" width="20" height="20" as="geometry" />
          </mxCell>
        </object>
        <object label="%id%" placeholders="1" type="junction" id="c37">
          <mxCell style="ellipse;whiteSpace=wrap;html=1;aspect=fixed;perimeter=ellipsePerimeter;" parent="AcLKcFcPObNCE5Jz1mWQ-1" vertex="1">
            <mxGeometry x="1470" y="470" width="20" height="20" as="geometry" />
          </mxCell>
        </object>
        <object label="%id%" placeholders="1" type="junction" id="c41">
          <mxCell style="ellipse;whiteSpace=wrap;html=1;aspect=fixed;perimeter=ellipsePerimeter;" parent="AcLKcFcPObNCE5Jz1mWQ-1" vertex="1">
            <mxGeometry x="1030" y="390" width="20" height="20" as="geometry" />
          </mxCell>
        </object>
        <object label="%id%" placeholders="1" type="junction" id="c18">
          <mxCell style="ellipse;whiteSpace=wrap;html=1;aspect=fixed;perimeter=ellipsePerimeter;" parent="AcLKcFcPObNCE5Jz1mWQ-1" vertex="1">
            <mxGeometry x="390" y="310" width="20" height="20" as="geometry" />
          </mxCell>
        </object>
        <object label="%id%" placeholders="1" type="junction" id="c19">
          <mxCell style="ellipse;whiteSpace=wrap;html=1;aspect=fixed;perimeter=ellipsePerimeter;" parent="AcLKcFcPObNCE5Jz1mWQ-1" vertex="1">
            <mxGeometry x="510" y="310" width="20" height="20" as="geometry" />
          </mxCell>
        </object>
        <object label="%id%" placeholders="1" type="junction" id="c21">
          <mxCell style="ellipse;whiteSpace=wrap;html=1;aspect=fixed;" parent="AcLKcFcPObNCE5Jz1mWQ-1" vertex="1">
            <mxGeometry x="790" y="230" width="20" height="20" as="geometry" />
          </mxCell>
        </object>
        <object label="%id%" placeholders="1" type="junction" id="c22">
          <mxCell style="ellipse;whiteSpace=wrap;html=1;aspect=fixed;" parent="AcLKcFcPObNCE5Jz1mWQ-1" vertex="1">
            <mxGeometry x="790" y="310" width="20" height="20" as="geometry" />
          </mxCell>
        </object>
        <object label="%id%" placeholders="1" type="junction" id="c20">
          <mxCell style="ellipse;whiteSpace=wrap;html=1;aspect=fixed;" parent="AcLKcFcPObNCE5Jz1mWQ-1" vertex="1">
            <mxGeometry x="790" y="150" width="20" height="20" as="geometry" />
          </mxCell>
        </object>
        <object label="%id%" placeholders="1" type="junction" id="c26">
          <mxCell style="ellipse;whiteSpace=wrap;html=1;aspect=fixed;" parent="AcLKcFcPObNCE5Jz1mWQ-1" vertex="1">
            <mxGeometry x="1070" y="230" width="20" height="20" as="geometry" />
          </mxCell>
        </object>
        <object label="%id%" placeholders="1" type="junction" id="c23">
          <mxCell style="ellipse;whiteSpace=wrap;html=1;aspect=fixed;" parent="AcLKcFcPObNCE5Jz1mWQ-1" vertex="1">
            <mxGeometry x="950" y="150" width="20" height="20" as="geometry" />
          </mxCell>
        </object>
        <object label="%id%" placeholders="1" type="junction" id="c24">
          <mxCell style="ellipse;whiteSpace=wrap;html=1;aspect=fixed;" parent="AcLKcFcPObNCE5Jz1mWQ-1" vertex="1">
            <mxGeometry x="950" y="230" width="20" height="20" as="geometry" />
          </mxCell>
        </object>
        <object label="%id%" placeholders="1" type="junction" id="c25">
          <mxCell style="ellipse;whiteSpace=wrap;html=1;aspect=fixed;" parent="AcLKcFcPObNCE5Jz1mWQ-1" vertex="1">
            <mxGeometry x="950" y="310" width="20" height="20" as="geometry" />
          </mxCell>
        </object>
        <object label="%id%" placeholders="1" type="junction" id="c31">
          <mxCell style="ellipse;whiteSpace=wrap;html=1;aspect=fixed;perimeter=ellipsePerimeter;" parent="AcLKcFcPObNCE5Jz1mWQ-1" vertex="1">
            <mxGeometry x="1910" y="230" width="20" height="20" as="geometry" />
          </mxCell>
        </object>
        <object label="%id%" placeholders="1" type="junction" id="c32">
          <mxCell style="ellipse;whiteSpace=wrap;html=1;aspect=fixed;perimeter=ellipsePerimeter;" parent="AcLKcFcPObNCE5Jz1mWQ-1" vertex="1">
            <mxGeometry x="1830" y="350" width="20" height="20" as="geometry" />
          </mxCell>
        </object>
        <object label="%id%" placeholders="1" type="junction" id="c33">
          <mxCell style="ellipse;whiteSpace=wrap;html=1;aspect=fixed;perimeter=ellipsePerimeter;" parent="AcLKcFcPObNCE5Jz1mWQ-1" vertex="1">
            <mxGeometry x="1910" y="470" width="20" height="20" as="geometry" />
          </mxCell>
        </object>
        <object label="%id%" placeholders="1" type="junction" id="c48">
          <mxCell style="ellipse;whiteSpace=wrap;html=1;aspect=fixed;perimeter=ellipsePerimeter;" parent="AcLKcFcPObNCE5Jz1mWQ-1" vertex="1">
            <mxGeometry x="70" y="470" width="20" height="20" as="geometry" />
          </mxCell>
        </object>
        <object label="%id%" placeholders="1" type="junction" id="c49">
          <mxCell style="ellipse;whiteSpace=wrap;html=1;aspect=fixed;perimeter=ellipsePerimeter;" parent="AcLKcFcPObNCE5Jz1mWQ-1" vertex="1">
            <mxGeometry x="150" y="350" width="20" height="20" as="geometry" />
          </mxCell>
        </object>
        <object label="%id%" placeholders="1" type="junction" id="c50">
          <mxCell style="ellipse;whiteSpace=wrap;html=1;aspect=fixed;perimeter=ellipsePerimeter;" parent="AcLKcFcPObNCE5Jz1mWQ-1" vertex="1">
            <mxGeometry x="70" y="230" width="20" height="20" as="geometry" />
          </mxCell>
        </object>
        <object label="%id%" placeholders="1" type="section" blockId="b00" id="S00">
          <mxCell style="endArrow=open;html=1;rounded=0;startArrow=oval;startFill=1;endFill=0;" parent="AcLKcFcPObNCE5Jz1mWQ-1" source="c16" target="j00" edge="1">
            <mxGeometry width="100" height="100" relative="1" as="geometry">
              <mxPoint x="400" y="238.62" as="sourcePoint" />
              <mxPoint x="440" y="318" as="targetPoint" />
              <mxPoint as="offset" />
            </mxGeometry>
          </mxCell>
        </object>
        <object label="%id%" placeholders="1" type="section" blockId="b02" id="S03">
          <mxCell style="endArrow=open;html=1;rounded=0;startArrow=oval;startFill=1;endFill=0;" parent="AcLKcFcPObNCE5Jz1mWQ-1" source="j00" target="j01" edge="1">
            <mxGeometry x="0.0047" width="100" height="100" relative="1" as="geometry">
              <mxPoint x="480" y="318.62" as="sourcePoint" />
              <mxPoint x="520" y="238.62" as="targetPoint" />
              <mxPoint as="offset" />
            </mxGeometry>
          </mxCell>
        </object>
        <object label="%id%" placeholders="1" type="section" blockId="b01" id="S01">
          <mxCell style="endArrow=open;html=1;rounded=0;startArrow=oval;startFill=1;endFill=0;" parent="AcLKcFcPObNCE5Jz1mWQ-1" source="c17" target="c18" edge="1">
            <mxGeometry width="100" height="100" relative="1" as="geometry">
              <mxPoint x="440" y="230" as="sourcePoint" />
              <mxPoint x="520" y="238.62" as="targetPoint" />
            </mxGeometry>
          </mxCell>
        </object>
        <object label="%id%" placeholders="1" type="section" blockId="b02" id="S02">
          <mxCell style="endArrow=open;html=1;rounded=0;startArrow=oval;startFill=1;endFill=0;" parent="AcLKcFcPObNCE5Jz1mWQ-1" source="j00" target="j03" edge="1">
            <mxGeometry width="100" height="100" relative="1" as="geometry">
              <mxPoint x="440" y="318.62" as="sourcePoint" />
              <mxPoint x="480" y="318.62" as="targetPoint" />
            </mxGeometry>
          </mxCell>
        </object>
        <object label="%id%" placeholders="1" type="section" blockId="b02" id="S05">
          <mxCell style="endArrow=open;html=1;rounded=0;startArrow=oval;startFill=1;endFill=0;" parent="AcLKcFcPObNCE5Jz1mWQ-1" source="j01" target="j02" edge="1">
            <mxGeometry x="0.0233" width="100" height="100" relative="1" as="geometry">
              <mxPoint x="520" y="239.9999999999999" as="sourcePoint" />
              <mxPoint x="700" y="350" as="targetPoint" />
              <Array as="points" />
              <mxPoint as="offset" />
            </mxGeometry>
          </mxCell>
        </object>
        <object label="%id%" placeholders="1" type="section" blockId="b02" id="S06">
          <mxCell style="endArrow=open;html=1;rounded=0;startArrow=oval;startFill=1;endFill=0;" parent="AcLKcFcPObNCE5Jz1mWQ-1" source="j02" target="j03" edge="1">
            <mxGeometry width="100" height="100" relative="1" as="geometry">
              <mxPoint x="510" y="300" as="sourcePoint" />
              <mxPoint x="530" y="270" as="targetPoint" />
            </mxGeometry>
          </mxCell>
        </object>
        <object label="%id%" placeholders="1" type="section" blockId="b02" id="S07">
          <mxCell style="endArrow=open;html=1;rounded=0;startArrow=oval;startFill=1;endFill=0;" parent="AcLKcFcPObNCE5Jz1mWQ-1" source="j02" target="c19" edge="1">
            <mxGeometry width="100" height="100" relative="1" as="geometry">
              <mxPoint x="545" y="340" as="sourcePoint" />
              <mxPoint x="615" y="340" as="targetPoint" />
            </mxGeometry>
          </mxCell>
        </object>
        <object label="%id%" placeholders="1" type="section" blockId="b32" id="S32">
          <mxCell style="endArrow=open;html=1;rounded=0;startArrow=oval;startFill=1;endFill=0;" parent="AcLKcFcPObNCE5Jz1mWQ-1" source="c36" target="j09" edge="1">
            <mxGeometry width="100" height="100" relative="1" as="geometry">
              <mxPoint x="1039.9999999999998" y="240.00000000000009" as="sourcePoint" />
              <mxPoint x="1600" y="480" as="targetPoint" />
            </mxGeometry>
          </mxCell>
        </object>
        <object label="%id%" placeholders="1" type="section" blockId="b32" id="S33">
          <mxCell style="endArrow=open;html=1;rounded=0;startArrow=oval;startFill=1;endFill=0;" parent="AcLKcFcPObNCE5Jz1mWQ-1" source="j08" target="j09" edge="1">
            <mxGeometry width="100" height="100" relative="1" as="geometry">
              <mxPoint x="1640" y="399.4" as="sourcePoint" />
              <mxPoint x="1600" y="479.4" as="targetPoint" />
            </mxGeometry>
          </mxCell>
        </object>
        <object label="%id%" placeholders="1" type="section" blockId="b32" id="S37">
          <mxCell style="endArrow=open;html=1;rounded=0;startArrow=oval;startFill=1;endFill=0;" parent="AcLKcFcPObNCE5Jz1mWQ-1" source="j10" target="j11" edge="1">
            <mxGeometry width="100" height="100" relative="1" as="geometry">
              <mxPoint x="1560" y="479.4" as="sourcePoint" />
              <mxPoint x="1520" y="399.4" as="targetPoint" />
            </mxGeometry>
          </mxCell>
        </object>
        <object label="%id%" placeholders="1" type="section" blockId="b32" id="S34">
          <mxCell style="endArrow=open;html=1;rounded=0;startArrow=oval;startFill=1;endFill=0;" parent="AcLKcFcPObNCE5Jz1mWQ-1" source="j08" target="j11" edge="1">
            <mxGeometry width="100" height="100" relative="1" as="geometry">
              <mxPoint x="1640" y="399.4" as="sourcePoint" />
              <mxPoint x="1520" y="399.4" as="targetPoint" />
            </mxGeometry>
          </mxCell>
        </object>
        <object label="%id%" placeholders="1" type="section" blockId="b32" id="S35">
          <mxCell style="endArrow=open;html=1;rounded=0;startArrow=oval;startFill=1;endFill=0;" parent="AcLKcFcPObNCE5Jz1mWQ-1" source="j09" target="j10" edge="1">
            <mxGeometry x="0.0233" width="100" height="100" relative="1" as="geometry">
              <mxPoint x="1600" y="479.4" as="sourcePoint" />
              <mxPoint x="1560" y="479.4" as="targetPoint" />
              <mxPoint as="offset" />
            </mxGeometry>
          </mxCell>
        </object>
        <object label="%id%" placeholders="1" type="section" blockId="b43" id="S45">
          <mxCell style="endArrow=open;html=1;rounded=0;startArrow=oval;startFill=1;endFill=0;" parent="AcLKcFcPObNCE5Jz1mWQ-1" source="c41" target="c42" edge="1">
            <mxGeometry width="100" height="100" relative="1" as="geometry">
              <mxPoint x="1510" y="380" as="sourcePoint" />
              <mxPoint x="1010" y="400" as="targetPoint" />
            </mxGeometry>
          </mxCell>
        </object>
        <object label="%id%" placeholders="1" type="section" blockId="b41" id="S41">
          <mxCell style="endArrow=open;html=1;rounded=0;startArrow=oval;startFill=1;endFill=0;" parent="AcLKcFcPObNCE5Jz1mWQ-1" source="c39" target="j12" edge="1">
            <mxGeometry width="100" height="100" relative="1" as="geometry">
              <mxPoint x="1200" y="450" as="sourcePoint" />
              <mxPoint x="1040" y="480" as="targetPoint" />
            </mxGeometry>
          </mxCell>
        </object>
        <object label="%id%" placeholders="1" type="section" blockId="b43" id="S43">
          <mxCell style="endArrow=open;html=1;rounded=0;startArrow=oval;startFill=1;endFill=0;" parent="AcLKcFcPObNCE5Jz1mWQ-1" source="j12" target="j15" edge="1">
            <mxGeometry width="100" height="100" relative="1" as="geometry">
              <mxPoint x="1040" y="480" as="sourcePoint" />
              <mxPoint x="920" y="480" as="targetPoint" />
            </mxGeometry>
          </mxCell>
        </object>
        <object label="%id%" placeholders="1" type="section" blockId="b02" id="S04">
          <mxCell style="rounded=0;orthogonalLoop=1;jettySize=auto;html=1;startArrow=oval;startFill=1;endArrow=open;endFill=0;" parent="AcLKcFcPObNCE5Jz1mWQ-1" source="c18" target="j01" edge="1">
            <mxGeometry x="0.0233" relative="1" as="geometry">
              <mxPoint x="500" y="280" as="sourcePoint" />
              <mxPoint x="440" y="350" as="targetPoint" />
              <mxPoint as="offset" />
            </mxGeometry>
          </mxCell>
        </object>
        <object label="%id%" placeholders="1" type="section" blockId="b08" id="S08">
          <mxCell style="endArrow=open;html=1;rounded=0;startArrow=oval;startFill=1;endFill=0;" parent="AcLKcFcPObNCE5Jz1mWQ-1" source="j03" target="c20" edge="1">
            <mxGeometry width="100" height="100" relative="1" as="geometry">
              <mxPoint x="494.47213595499954" y="321.0557280900008" as="sourcePoint" />
              <mxPoint x="525.5278640450005" y="258.9442719099992" as="targetPoint" />
              <Array as="points">
                <mxPoint x="720" y="240" />
                <mxPoint x="760" y="160" />
              </Array>
            </mxGeometry>
          </mxCell>
        </object>
        <object label="%id%" placeholders="1" type="section" blockId="b09" id="S09">
          <mxCell style="endArrow=open;html=1;rounded=0;startArrow=oval;startFill=1;endFill=0;" parent="AcLKcFcPObNCE5Jz1mWQ-1" source="c19" target="j04" edge="1">
            <mxGeometry width="100" height="100" relative="1" as="geometry">
              <mxPoint x="504.47213595499954" y="331.0557280900008" as="sourcePoint" />
              <mxPoint x="535.5278640450005" y="268.9442719099992" as="targetPoint" />
            </mxGeometry>
          </mxCell>
        </object>
        <object label="%id%" placeholders="1" type="section" blockId="b09" id="S10">
          <mxCell style="endArrow=open;html=1;rounded=0;startArrow=oval;startFill=1;endFill=0;" parent="AcLKcFcPObNCE5Jz1mWQ-1" source="j04" target="c21" edge="1">
            <mxGeometry width="100" height="100" relative="1" as="geometry">
              <mxPoint x="514.4721359549995" y="341.0557280900008" as="sourcePoint" />
              <mxPoint x="545.5278640450005" y="278.9442719099992" as="targetPoint" />
            </mxGeometry>
          </mxCell>
        </object>
        <object label="%id%" placeholders="1" type="section" blockId="b09" id="S11">
          <mxCell style="endArrow=open;html=1;rounded=0;startArrow=oval;startFill=1;endFill=0;" parent="AcLKcFcPObNCE5Jz1mWQ-1" source="j04" target="c22" edge="1">
            <mxGeometry width="100" height="100" relative="1" as="geometry">
              <mxPoint x="524.4721359549995" y="351.0557280900008" as="sourcePoint" />
              <mxPoint x="555.5278640450005" y="288.9442719099992" as="targetPoint" />
            </mxGeometry>
          </mxCell>
        </object>
        <object label="%id%" placeholders="1" type="section" blockId="b12" id="S12">
          <mxCell style="endArrow=open;html=1;rounded=0;startArrow=oval;startFill=1;endFill=0;" parent="AcLKcFcPObNCE5Jz1mWQ-1" source="c20" target="c23" edge="1">
            <mxGeometry width="100" height="100" relative="1" as="geometry">
              <mxPoint x="850" y="270" as="sourcePoint" />
              <mxPoint x="910" y="160" as="targetPoint" />
            </mxGeometry>
          </mxCell>
        </object>
        <object label="%id%" placeholders="1" type="section" blockId="b13" id="S13">
          <mxCell style="endArrow=open;html=1;rounded=0;startArrow=oval;startFill=1;endFill=0;" parent="AcLKcFcPObNCE5Jz1mWQ-1" source="c21" target="c24" edge="1">
            <mxGeometry width="100" height="100" relative="1" as="geometry">
              <mxPoint x="820" y="170" as="sourcePoint" />
              <mxPoint x="960" y="170" as="targetPoint" />
            </mxGeometry>
          </mxCell>
        </object>
        <object label="%id%" placeholders="1" type="section" blockId="b14" id="S14">
          <mxCell style="endArrow=open;html=1;rounded=0;startArrow=oval;startFill=1;endFill=0;" parent="AcLKcFcPObNCE5Jz1mWQ-1" source="c22" target="c25" edge="1">
            <mxGeometry width="100" height="100" relative="1" as="geometry">
              <mxPoint x="830" y="180" as="sourcePoint" />
              <mxPoint x="970" y="180" as="targetPoint" />
            </mxGeometry>
          </mxCell>
        </object>
        <object label="%id%" placeholders="1" type="section" blockId="b15" id="S15">
          <mxCell style="endArrow=open;html=1;rounded=0;startArrow=oval;startFill=1;endFill=0;" parent="AcLKcFcPObNCE5Jz1mWQ-1" source="c23" target="j05" edge="1">
            <mxGeometry width="100" height="100" relative="1" as="geometry">
              <mxPoint x="840" y="190" as="sourcePoint" />
              <mxPoint x="980" y="190" as="targetPoint" />
            </mxGeometry>
          </mxCell>
        </object>
        <object label="%id%" placeholders="1" type="section" blockId="b15" id="S16">
          <mxCell style="endArrow=open;html=1;rounded=0;startArrow=oval;startFill=1;endFill=0;" parent="AcLKcFcPObNCE5Jz1mWQ-1" source="c24" target="j05" edge="1">
            <mxGeometry width="100" height="100" relative="1" as="geometry">
              <mxPoint x="850" y="200" as="sourcePoint" />
              <mxPoint x="990" y="200" as="targetPoint" />
            </mxGeometry>
          </mxCell>
        </object>
        <object label="%id%" placeholders="1" type="section" blockId="b15" id="S17">
          <mxCell style="endArrow=open;html=1;rounded=0;startArrow=oval;startFill=1;endFill=0;" parent="AcLKcFcPObNCE5Jz1mWQ-1" source="c25" target="j07" edge="1">
            <mxGeometry width="100" height="100" relative="1" as="geometry">
              <mxPoint x="860" y="210" as="sourcePoint" />
              <mxPoint x="1000" y="210" as="targetPoint" />
            </mxGeometry>
          </mxCell>
        </object>
        <object label="%id%" placeholders="1" type="section" blockId="b15" id="S18">
          <mxCell style="endArrow=open;html=1;rounded=0;startArrow=oval;startFill=1;endFill=0;" parent="AcLKcFcPObNCE5Jz1mWQ-1" source="j05" target="j06" edge="1">
            <mxGeometry width="100" height="100" relative="1" as="geometry">
              <mxPoint x="870" y="220" as="sourcePoint" />
              <mxPoint x="1010" y="220" as="targetPoint" />
            </mxGeometry>
          </mxCell>
        </object>
        <object label="%id%" placeholders="1" type="section" blockId="b15" id="S19">
          <mxCell style="endArrow=open;html=1;rounded=0;startArrow=oval;startFill=1;endFill=0;" parent="AcLKcFcPObNCE5Jz1mWQ-1" source="j06" target="c26" edge="1">
            <mxGeometry width="100" height="100" relative="1" as="geometry">
              <mxPoint x="880" y="230" as="sourcePoint" />
              <mxPoint x="1020" y="230" as="targetPoint" />
            </mxGeometry>
          </mxCell>
        </object>
        <object label="%id%" placeholders="1" type="section" blockId="b15" id="S20">
          <mxCell style="endArrow=open;html=1;rounded=0;startArrow=oval;startFill=1;endFill=0;" parent="AcLKcFcPObNCE5Jz1mWQ-1" source="j06" target="j07" edge="1">
            <mxGeometry width="100" height="100" relative="1" as="geometry">
              <mxPoint x="890" y="240" as="sourcePoint" />
              <mxPoint x="1030" y="240" as="targetPoint" />
            </mxGeometry>
          </mxCell>
        </object>
        <object label="%id%" placeholders="1" type="section" blockId="b21" id="S21">
          <mxCell style="endArrow=open;html=1;rounded=0;startArrow=oval;startFill=1;endFill=0;" parent="AcLKcFcPObNCE5Jz1mWQ-1" source="c26" target="c27" edge="1">
            <mxGeometry width="100" height="100" relative="1" as="geometry">
              <mxPoint x="900" y="250" as="sourcePoint" />
              <mxPoint x="1220" y="270" as="targetPoint" />
            </mxGeometry>
          </mxCell>
        </object>
        <object label="%id%" placeholders="1" type="section" blockId="b22" id="S22">
          <mxCell style="endArrow=open;html=1;rounded=0;startArrow=oval;startFill=1;endFill=0;" parent="AcLKcFcPObNCE5Jz1mWQ-1" source="j07" target="c28" edge="1">
            <mxGeometry width="100" height="100" relative="1" as="geometry">
              <mxPoint x="1100" y="250" as="sourcePoint" />
              <mxPoint x="1360" y="250" as="targetPoint" />
            </mxGeometry>
          </mxCell>
        </object>
        <object label="%id%" placeholders="1" type="section" blockId="b23" id="S23">
          <mxCell style="endArrow=open;html=1;rounded=0;startArrow=oval;startFill=1;endFill=0;" parent="AcLKcFcPObNCE5Jz1mWQ-1" source="c27" target="c29" edge="1">
            <mxGeometry width="100" height="100" relative="1" as="geometry">
              <mxPoint x="1390" y="260" as="sourcePoint" />
              <mxPoint x="1650" y="260" as="targetPoint" />
            </mxGeometry>
          </mxCell>
        </object>
        <object label="%id%" placeholders="1" type="section" blockId="b24" id="S24">
          <mxCell style="endArrow=open;html=1;rounded=0;startArrow=oval;startFill=1;endFill=0;" parent="AcLKcFcPObNCE5Jz1mWQ-1" source="c28" target="c30" edge="1">
            <mxGeometry width="100" height="100" relative="1" as="geometry">
              <mxPoint x="1380" y="250" as="sourcePoint" />
              <mxPoint x="1640" y="250" as="targetPoint" />
            </mxGeometry>
          </mxCell>
        </object>
        <object label="%id%" placeholders="1" type="section" blockId="b25" id="S25">
          <mxCell style="endArrow=open;html=1;rounded=0;startArrow=oval;startFill=1;endFill=0;" parent="AcLKcFcPObNCE5Jz1mWQ-1" source="c29" target="c31" edge="1">
            <mxGeometry width="100" height="100" relative="1" as="geometry">
              <mxPoint x="1630" y="219.32999999999998" as="sourcePoint" />
              <mxPoint x="1890" y="219.32999999999998" as="targetPoint" />
            </mxGeometry>
          </mxCell>
        </object>
        <object label="%id%" placeholders="1" type="section" blockId="b26" id="S26">
          <mxCell style="endArrow=open;html=1;rounded=0;startArrow=oval;startFill=1;endFill=0;" parent="AcLKcFcPObNCE5Jz1mWQ-1" source="c30" target="c32" edge="1">
            <mxGeometry width="100" height="100" relative="1" as="geometry">
              <mxPoint x="1660" y="250" as="sourcePoint" />
              <mxPoint x="1920" y="250" as="targetPoint" />
              <Array as="points">
                <mxPoint x="1840" y="320" />
              </Array>
            </mxGeometry>
          </mxCell>
        </object>
        <object label="%id%" placeholders="1" type="section" blockId="b27" id="S27">
          <mxCell style="endArrow=open;html=1;rounded=0;startArrow=oval;startFill=1;endFill=0;" parent="AcLKcFcPObNCE5Jz1mWQ-1" source="c31" target="c33" edge="1">
            <mxGeometry width="100" height="100" relative="1" as="geometry">
              <mxPoint x="1670" y="260" as="sourcePoint" />
              <mxPoint x="1930" y="260" as="targetPoint" />
            </mxGeometry>
          </mxCell>
        </object>
        <object label="%id%" placeholders="1" type="section" blockId="b28" id="S28">
          <mxCell style="endArrow=open;html=1;rounded=0;startArrow=oval;startFill=1;endFill=0;" parent="AcLKcFcPObNCE5Jz1mWQ-1" source="c32" target="c35" edge="1">
            <mxGeometry width="100" height="100" relative="1" as="geometry">
              <mxPoint x="1680" y="270" as="sourcePoint" />
              <mxPoint x="1940" y="270" as="targetPoint" />
              <Array as="points">
                <mxPoint x="1840" y="400" />
              </Array>
            </mxGeometry>
          </mxCell>
        </object>
        <object label="%id%" placeholders="1" type="section" blockId="b29" id="S29">
          <mxCell style="endArrow=open;html=1;rounded=0;startArrow=oval;startFill=1;endFill=0;" parent="AcLKcFcPObNCE5Jz1mWQ-1" source="c33" target="c34" edge="1">
            <mxGeometry width="100" height="100" relative="1" as="geometry">
              <mxPoint x="1690" y="280" as="sourcePoint" />
              <mxPoint x="1950" y="280" as="targetPoint" />
            </mxGeometry>
          </mxCell>
        </object>
        <object label="%id%" placeholders="1" type="section" blockId="b30" id="S30">
          <mxCell style="endArrow=open;html=1;rounded=0;startArrow=oval;startFill=1;endFill=0;" parent="AcLKcFcPObNCE5Jz1mWQ-1" source="c34" target="c36" edge="1">
            <mxGeometry width="100" height="100" relative="1" as="geometry">
              <mxPoint x="1920" y="490" as="sourcePoint" />
              <mxPoint x="1780" y="490" as="targetPoint" />
            </mxGeometry>
          </mxCell>
        </object>
        <object label="%id%" placeholders="1" type="section" blockId="b31" id="S31">
          <mxCell style="endArrow=open;html=1;rounded=0;startArrow=oval;startFill=1;endFill=0;" parent="AcLKcFcPObNCE5Jz1mWQ-1" source="c35" target="j08" edge="1">
            <mxGeometry width="100" height="100" relative="1" as="geometry">
              <mxPoint x="1930" y="500" as="sourcePoint" />
              <mxPoint x="1790" y="500" as="targetPoint" />
            </mxGeometry>
          </mxCell>
        </object>
        <object label="%id%" placeholders="1" type="section" blockId="b32" id="S36">
          <mxCell style="endArrow=open;html=1;rounded=0;startArrow=oval;startFill=1;endFill=0;" parent="AcLKcFcPObNCE5Jz1mWQ-1" source="j10" target="c37" edge="1">
            <mxGeometry x="0.0233" width="100" height="100" relative="1" as="geometry">
              <mxPoint x="1600" y="490" as="sourcePoint" />
              <mxPoint x="1580" y="490" as="targetPoint" />
              <mxPoint as="offset" />
            </mxGeometry>
          </mxCell>
        </object>
        <object label="%id%" placeholders="1" type="section" blockId="b32" id="S38">
          <mxCell style="endArrow=open;html=1;rounded=0;startArrow=oval;startFill=1;endFill=0;" parent="AcLKcFcPObNCE5Jz1mWQ-1" source="j11" target="c38" edge="1">
            <mxGeometry x="0.0233" width="100" height="100" relative="1" as="geometry">
              <mxPoint x="1560" y="490" as="sourcePoint" />
              <mxPoint x="1500" y="490" as="targetPoint" />
              <mxPoint as="offset" />
            </mxGeometry>
          </mxCell>
        </object>
        <object label="%id%" placeholders="1" type="section" blockId="b39" id="S39">
          <mxCell style="endArrow=open;html=1;rounded=0;startArrow=oval;startFill=1;endFill=0;" parent="AcLKcFcPObNCE5Jz1mWQ-1" source="c37" target="c39" edge="1">
            <mxGeometry x="0.0233" width="100" height="100" relative="1" as="geometry">
              <mxPoint x="1570" y="500" as="sourcePoint" />
              <mxPoint x="1207.4073621961807" y="470" as="targetPoint" />
              <mxPoint as="offset" />
            </mxGeometry>
          </mxCell>
        </object>
        <object label="%id%" placeholders="1" type="section" blockId="b40" id="S40">
          <mxCell style="endArrow=open;html=1;rounded=0;startArrow=oval;startFill=1;endFill=0;" parent="AcLKcFcPObNCE5Jz1mWQ-1" source="c38" target="c40" edge="1">
            <mxGeometry x="0.0233" width="100" height="100" relative="1" as="geometry">
              <mxPoint x="1480" y="490" as="sourcePoint" />
              <mxPoint x="1219.999999999982" y="490" as="targetPoint" />
              <mxPoint as="offset" />
            </mxGeometry>
          </mxCell>
        </object>
        <object label="%id%" placeholders="1" type="section" blockId="b42" id="S42">
          <mxCell style="endArrow=open;html=1;rounded=0;startArrow=oval;startFill=1;endFill=0;" parent="AcLKcFcPObNCE5Jz1mWQ-1" source="c40" target="c41" edge="1">
            <mxGeometry width="100" height="100" relative="1" as="geometry">
              <mxPoint x="1200" y="490" as="sourcePoint" />
              <mxPoint x="1060" y="490" as="targetPoint" />
            </mxGeometry>
          </mxCell>
        </object>
        <object label="%id%" placeholders="1" type="section" blockId="b49" id="S49">
          <mxCell style="endArrow=open;html=1;rounded=0;startArrow=oval;startFill=1;endFill=0;" parent="AcLKcFcPObNCE5Jz1mWQ-1" source="j15" target="c43" edge="1">
            <mxGeometry width="100" height="100" relative="1" as="geometry">
              <mxPoint x="1010.0000000000123" y="420" as="sourcePoint" />
              <mxPoint x="990" y="420" as="targetPoint" />
            </mxGeometry>
          </mxCell>
        </object>
        <object label="%id%" placeholders="1" type="section" blockId="b50" id="S50">
          <mxCell style="endArrow=open;html=1;rounded=0;startArrow=oval;startFill=1;endFill=0;" parent="AcLKcFcPObNCE5Jz1mWQ-1" source="c42" target="c44" edge="1">
            <mxGeometry width="100" height="100" relative="1" as="geometry">
              <mxPoint x="920" y="490" as="sourcePoint" />
              <mxPoint x="660" y="490" as="targetPoint" />
            </mxGeometry>
          </mxCell>
        </object>
        <object label="%id%" placeholders="1" type="section" blockId="b51" id="S51">
          <mxCell style="endArrow=open;html=1;rounded=0;startArrow=oval;startFill=1;endFill=0;" parent="AcLKcFcPObNCE5Jz1mWQ-1" source="c43" target="c45" edge="1">
            <mxGeometry width="100" height="100" relative="1" as="geometry">
              <mxPoint x="930" y="500" as="sourcePoint" />
              <mxPoint x="670" y="500" as="targetPoint" />
            </mxGeometry>
          </mxCell>
        </object>
        <object label="%id%" placeholders="1" type="section" blockId="b52" id="S52">
          <mxCell style="endArrow=open;html=1;rounded=0;startArrow=oval;startFill=1;endFill=0;" parent="AcLKcFcPObNCE5Jz1mWQ-1" source="c44" target="c46" edge="1">
            <mxGeometry width="100" height="100" relative="1" as="geometry">
              <mxPoint x="640" y="490" as="sourcePoint" />
              <mxPoint x="380" y="490" as="targetPoint" />
            </mxGeometry>
          </mxCell>
        </object>
        <object label="%id%" placeholders="1" type="section" blockId="b53" id="S53">
          <mxCell style="endArrow=open;html=1;rounded=0;startArrow=oval;startFill=1;endFill=0;" parent="AcLKcFcPObNCE5Jz1mWQ-1" source="c45" target="c48" edge="1">
            <mxGeometry width="100" height="100" relative="1" as="geometry">
              <mxPoint x="340" y="510" as="sourcePoint" />
              <mxPoint x="80" y="510" as="targetPoint" />
            </mxGeometry>
          </mxCell>
        </object>
        <object label="%id%" placeholders="1" type="section" blockId="b54" id="S54">
          <mxCell style="endArrow=open;html=1;rounded=0;startArrow=oval;startFill=1;endFill=0;" parent="AcLKcFcPObNCE5Jz1mWQ-1" source="c46" target="c49" edge="1">
            <mxGeometry width="100" height="100" relative="1" as="geometry">
              <mxPoint x="360" y="490" as="sourcePoint" />
              <mxPoint x="100" y="490" as="targetPoint" />
              <Array as="points">
                <mxPoint x="160" y="400" />
              </Array>
            </mxGeometry>
          </mxCell>
        </object>
        <object label="%id%" placeholders="1" type="section" blockId="b55" id="S55">
          <mxCell style="endArrow=open;html=1;rounded=0;startArrow=oval;startFill=1;endFill=0;" parent="AcLKcFcPObNCE5Jz1mWQ-1" source="c48" target="c50" edge="1">
            <mxGeometry width="100" height="100" relative="1" as="geometry">
              <mxPoint x="370" y="500" as="sourcePoint" />
              <mxPoint x="110" y="500" as="targetPoint" />
            </mxGeometry>
          </mxCell>
        </object>
        <object label="%id%" placeholders="1" type="section" blockId="b56" id="S56">
          <mxCell style="endArrow=open;html=1;rounded=0;startArrow=oval;startFill=1;endFill=0;" parent="AcLKcFcPObNCE5Jz1mWQ-1" source="c49" target="c17" edge="1">
            <mxGeometry width="100" height="100" relative="1" as="geometry">
              <mxPoint x="380" y="510" as="sourcePoint" />
              <mxPoint x="120" y="510" as="targetPoint" />
              <Array as="points">
                <mxPoint x="160" y="320" />
              </Array>
            </mxGeometry>
          </mxCell>
        </object>
        <object label="%id%" placeholders="1" type="section" blockId="b57" id="S57">
          <mxCell style="endArrow=open;html=1;rounded=0;startArrow=oval;startFill=1;endFill=0;" parent="AcLKcFcPObNCE5Jz1mWQ-1" source="c50" target="c16" edge="1">
            <mxGeometry width="100" height="100" relative="1" as="geometry">
              <mxPoint x="390" y="520" as="sourcePoint" />
              <mxPoint x="130" y="520" as="targetPoint" />
            </mxGeometry>
          </mxCell>
        </object>
      </root>
    </mxGraphModel>
  </diagram>
</mxfile>
